<svg width="48" height="48" viewBox="0 0 48 48" fill="none" xmlns="http://www.w3.org/2000/svg">
<g clip-path="url(#clip0_1_22)">
<path d="M30.7575 10.929C30.4762 11.2102 30.0947 11.3682 29.697 11.3682C29.2992 11.3682 28.9178 11.2102 28.6365 10.929C28.2253 10.5163 27.7364 10.1891 27.1981 9.9664C26.6597 9.7437 26.0826 9.62987 25.5 9.6315C24.27 9.6315 23.1705 10.125 22.3635 10.929C22.2242 11.0683 22.0589 11.1787 21.8769 11.2541C21.695 11.3295 21.4999 11.3683 21.303 11.3683C20.9052 11.3683 20.5238 11.2103 20.2425 10.929C20.1032 10.7897 19.9928 10.6244 19.9174 10.4424C19.842 10.2605 19.8032 10.0655 19.8032 9.8685C19.8032 9.47073 19.9612 9.08926 20.2425 8.808C20.9327 8.11734 21.7523 7.5696 22.6545 7.19612C23.5566 6.82265 24.5236 6.63078 25.5 6.6315C26.4764 6.63078 27.4434 6.82265 28.3455 7.19612C29.2477 7.5696 30.0673 8.11734 30.7575 8.808C31.0387 9.08929 31.1967 9.47075 31.1967 9.8685C31.1967 10.2662 31.0387 10.6477 30.7575 10.929ZM13.341 9.4965C12.0159 10.2706 10.8175 11.2434 9.7875 12.381L9.786 12.3825C8.75251 13.5243 7.90103 14.8185 7.2615 16.2195C6.60495 17.6572 6.18213 19.1905 6.009 20.7615C5.98733 20.9573 6.00444 21.1555 6.05935 21.3446C6.11426 21.5338 6.2059 21.7103 6.32903 21.8641C6.45216 22.0179 6.60437 22.1459 6.77697 22.2409C6.94958 22.3358 7.13919 22.3958 7.335 22.4175C7.5308 22.4392 7.72895 22.4221 7.91814 22.3671C8.10732 22.3122 8.28385 22.2206 8.43762 22.0975C8.59139 21.9743 8.71941 21.8221 8.81436 21.6495C8.90931 21.4769 8.96933 21.2873 8.991 21.0915C9.13171 19.8374 9.46936 18.6134 9.99149 17.4645C11.0193 15.2135 12.7178 13.3352 14.8545 12.087C15.0246 11.9876 15.1734 11.8557 15.2926 11.6988C15.4117 11.5419 15.4987 11.3631 15.5487 11.1725C15.5987 10.982 15.6107 10.7835 15.584 10.5883C15.5573 10.3931 15.4924 10.2051 15.393 10.035C15.2936 9.8649 15.1617 9.71605 15.0048 9.59693C14.8479 9.47781 14.6691 9.39077 14.4785 9.34077C14.0937 9.23978 13.6845 9.2958 13.341 9.4965ZM36 26.25C36 25.8522 36.158 25.4706 36.4393 25.1893C36.7206 24.908 37.1022 24.75 37.5 24.75C37.8978 24.75 38.2794 24.908 38.5607 25.1893C38.842 25.4706 39 25.8522 39 26.25C38.9979 27.6033 38.4725 28.9033 37.5336 29.878C36.5947 30.8526 35.3153 31.4263 33.963 31.479C34.2975 32.1675 34.5 32.9325 34.5 33.75C34.5 34.1478 34.342 34.5294 34.0607 34.8107C33.7794 35.092 33.3978 35.25 33 35.25C32.6022 35.25 32.2206 35.092 31.9393 34.8107C31.658 34.5294 31.5 34.1478 31.5 33.75C31.5 33.1533 31.2629 32.581 30.841 32.159C30.419 31.7371 29.8467 31.5 29.25 31.5H19.977C19.5792 31.5 19.1976 31.342 18.9163 31.0607C18.635 30.7794 18.477 30.3978 18.477 30C18.477 29.6022 18.635 29.2206 18.9163 28.9393C19.1976 28.658 19.5792 28.5 19.977 28.5H23.25C23.8464 28.4988 24.418 28.2614 24.8397 27.8397C25.2614 27.418 25.4988 26.8464 25.5 26.25C25.5 25.8522 25.658 25.4706 25.9393 25.1893C26.2206 24.908 26.6022 24.75 27 24.75C27.3978 24.75 27.7794 24.908 28.0607 25.1893C28.342 25.4706 28.5 25.8522 28.5 26.25C28.5 27.0585 28.302 27.816 27.975 28.5H33.75C34.3464 28.4988 34.918 28.2614 35.3397 27.8397C35.7614 27.418 35.9988 26.8464 36 26.25Z" fill="#6C7E7F"/>
<path d="M48 25.0665C48 24.1245 47.9325 23.2125 47.829 22.3275C46.4685 10.6005 36.522 1.503 24.4335 1.5H22.5855C10.11 1.5015 0.0015 11.61 0 24.0855C0 25.2562 0.23058 26.4154 0.678576 27.4969C1.12657 28.5785 1.78321 29.5612 2.611 30.389C4.28279 32.0608 6.55023 33 8.9145 33H10.776C11.2805 35.134 12.4903 37.0354 14.2096 38.3965C15.9289 39.7576 18.0572 40.4987 20.25 40.5H30.906L35.58 45.174C35.7373 45.3311 35.9377 45.4381 36.1558 45.4814C36.3739 45.5248 36.5999 45.5025 36.8054 45.4174C37.0108 45.3324 37.1865 45.1883 37.3101 45.0035C37.4337 44.8187 37.4998 44.6014 37.5 44.379V40.3755C39.8056 40.088 41.9779 39.1366 43.7526 37.637C45.5273 36.1374 46.8279 34.1543 47.496 31.929C47.7105 31.212 47.8335 30.456 47.9115 29.6865L47.916 29.6745C47.958 29.5365 48 29.4 48 29.25C47.999 29.158 47.995 29.067 47.988 28.977L47.9775 28.8045C47.9785 28.7565 47.982 28.71 47.988 28.665C47.996 28.61 48 28.555 48 28.5V25.0665ZM44.622 31.0725C44.0682 32.9292 42.93 34.5576 41.3766 35.7156C39.8232 36.8737 37.9375 37.4995 36 37.5H20.25C18.5668 37.4991 16.9447 36.8695 15.7018 35.7345C14.4589 34.5995 13.6849 33.0412 13.5315 31.365L13.5225 31.269C13.5726 29.3208 14.3831 27.4696 15.7804 26.1112C17.1778 24.7528 19.0512 23.995 21 24C21.3978 24 21.7794 23.842 22.0607 23.5607C22.342 23.2794 22.5 22.8978 22.5 22.5C22.5 22.1022 22.342 21.7206 22.0607 21.4393C21.7794 21.158 21.3978 21 21 21C19.2385 20.9999 17.5053 21.443 15.96 22.2885C15.6651 21.6258 15.2524 21.022 14.742 20.5065C14.4607 20.2252 14.0793 20.0672 13.6815 20.0672C13.2837 20.0672 12.9023 20.2252 12.621 20.5065C12.3397 20.7878 12.1817 21.1692 12.1817 21.567C12.1817 21.9648 12.3397 22.3462 12.621 22.6275C13.047 23.055 13.3365 23.6025 13.446 24.216C11.9216 25.8006 10.9332 27.8237 10.62 30H8.9145C8.1374 30.0012 7.36774 29.8488 6.64977 29.5514C5.93181 29.2541 5.27971 28.8178 4.731 28.2675C4.18118 27.7188 3.74522 27.0669 3.44815 26.3492C3.15109 25.6316 2.99879 24.8622 3 24.0855C3 18.672 5.19 13.785 8.736 10.236C10.552 8.41355 12.7106 6.96847 15.0876 5.98402C17.4645 4.99956 20.0128 4.4952 22.5855 4.5H24.4335C34.4685 4.497 42.8025 11.7 44.61 21.2085C42.9559 19.5954 40.8453 18.5307 38.565 18.159C39.3195 16.776 39.75 15.1875 39.75 13.5C39.75 13.1022 39.592 12.7206 39.3107 12.4393C39.0294 12.158 38.6478 12 38.25 12C37.8522 12 37.4706 12.158 37.1893 12.4393C36.908 12.7206 36.75 13.1022 36.75 13.5C36.7516 14.3867 36.5778 15.2649 36.2385 16.0841C35.8992 16.9033 35.4011 17.6472 34.773 18.273C34.1472 18.9011 33.4033 19.3992 32.5841 19.7385C31.7649 20.0778 30.8867 20.2516 30 20.25C29.6022 20.25 29.2206 20.408 28.9393 20.6893C28.658 20.9706 28.5 21.3522 28.5 21.75C28.5 22.1478 28.658 22.5294 28.9393 22.8107C29.2206 23.092 29.6022 23.25 30 23.25C32.319 23.2514 34.5619 22.4224 36.3225 20.913L36.3465 20.9205C36.4767 20.9654 36.6125 20.9922 36.75 21C39.033 21 41.0865 21.921 42.5835 23.4165C44.0203 24.8547 44.8732 26.7743 44.9775 28.8045C44.9563 29.5726 44.8368 30.3348 44.622 31.0725Z" fill="#6C7E7F"/>
</g>
<defs>
<clipPath id="clip0_1_22">
<rect width="48" height="48" fill="white"/>
</clipPath>
</defs>
</svg>
