<svg width="48" height="48" viewBox="0 0 48 48" fill="none" xmlns="http://www.w3.org/2000/svg">
<path d="M8.27 39.192C7.33934 39.192 6.54267 38.8607 5.88 38.198C5.21734 37.5353 4.88534 36.7387 4.884 35.808V33.808C4.884 32.8773 5.21534 32.0807 5.878 31.418C6.54067 30.7553 7.33734 30.4233 8.268 30.422C9.19867 30.4207 9.996 30.7527 10.66 31.418C11.3227 32.0807 11.654 32.8773 11.654 33.808V35.808C11.654 36.7387 11.3227 37.5353 10.66 38.198C9.99734 38.8607 9.20067 39.192 8.27 39.192ZM42.1 39.616H39.192C38.9107 39.616 38.6953 39.514 38.546 39.31C38.398 39.106 38.3573 38.868 38.424 38.596L38.896 36.87C38.9627 36.6793 39.0827 36.522 39.256 36.398C39.4293 36.274 39.612 36.2327 39.804 36.274L42.312 36.634C42.7013 36.7007 43.016 36.8647 43.256 37.126C43.496 37.386 43.616 37.7047 43.616 38.082C43.616 38.5127 43.4647 38.876 43.162 39.172C42.8593 39.468 42.5053 39.616 42.1 39.616ZM34.66 38.876L29.308 37.092C29.092 37.012 28.9307 36.8653 28.824 36.652C28.7173 36.4387 28.7173 36.2253 28.824 36.012L30.17 32.946C30.2767 32.7313 30.44 32.5847 30.66 32.506C30.88 32.4273 31.0973 32.446 31.312 32.562L35.804 35.17C35.9773 35.2447 36.0933 35.3627 36.152 35.524C36.2093 35.684 36.218 35.8553 36.178 36.038L35.692 38.292C35.6253 38.5333 35.4973 38.71 35.308 38.822C35.1187 38.9327 34.9033 38.9513 34.662 38.878M25.362 35.378L21.616 34.416C21.252 34.3333 20.956 34.148 20.728 33.86C20.4987 33.572 20.384 33.2353 20.384 32.85V31C20.384 30.3867 20.4793 29.792 20.67 29.216C20.8593 28.6387 21.1807 28.1627 21.634 27.788C21.8007 27.6373 22 27.56 22.232 27.556C22.4627 27.552 22.6867 27.6127 22.904 27.738L27.504 30.268C27.692 30.3747 27.82 30.528 27.888 30.728C27.9547 30.928 27.9513 31.1187 27.878 31.3L26.282 34.942C26.202 35.126 26.0753 35.2613 25.902 35.348C25.7287 35.4347 25.5487 35.446 25.362 35.378ZM15.132 33.616C14.9413 33.616 14.768 33.5407 14.612 33.39C14.456 33.2393 14.3633 33.048 14.334 32.816C14.1007 31.2387 13.3873 29.9773 12.194 29.032C11.0007 28.0867 9.60267 27.6147 8 27.616H7C6.81067 27.616 6.66067 27.5607 6.55 27.45C6.43934 27.3393 6.384 27.1893 6.384 27C6.384 26.8107 6.43934 26.6607 6.55 26.55C6.66067 26.4393 6.81067 26.384 7 26.384H8.8C9.448 26.384 10.064 26.3007 10.648 26.134C11.232 25.9673 11.8073 25.7267 12.374 25.412C12.558 25.312 12.7607 25.262 12.982 25.262C13.2033 25.262 13.4053 25.312 13.588 25.412C14.2547 25.76 14.92 26.0093 15.584 26.16C16.2493 26.3093 16.952 26.384 17.692 26.384C18.0227 26.384 18.256 26.5347 18.392 26.836C18.5307 27.1373 18.518 27.4373 18.354 27.736C18.0793 28.228 17.888 28.7533 17.78 29.312C17.672 29.8707 17.6173 30.4333 17.616 31V32.808C17.616 33.0227 17.536 33.2107 17.376 33.372C17.216 33.5347 17.0287 33.616 16.814 33.616H15.132ZM8.86 23.538C7.756 23.538 6.836 23.1633 6.1 22.414C5.364 21.6647 4.99734 20.7547 5 19.684C5 19.188 5.09134 18.7047 5.274 18.234C5.45667 17.7633 5.73 17.346 6.094 16.982L9 14.112V10.538C9 10.2553 9.096 10.018 9.288 9.82599C9.48 9.63399 9.718 9.53799 10.002 9.53799C10.286 9.53799 10.5233 9.63399 10.714 9.82599C10.9047 10.018 11 10.2553 11 10.538V13.738C11 14.1353 10.9173 14.5133 10.752 14.872C10.5867 15.2307 10.3593 15.5553 10.07 15.846L7.558 18.446C7.38867 18.6153 7.25334 18.81 7.152 19.03C7.05067 19.25 7 19.47 7 19.69C7 20.2047 7.18134 20.6413 7.544 21C7.90667 21.3587 8.342 21.5387 8.85 21.54C9.194 21.54 9.69534 21.3127 10.354 20.858C10.7433 20.534 11.1567 20.2667 11.594 20.056C12.03 19.844 12.5 19.738 13.004 19.738C13.508 19.738 13.9847 19.842 14.434 20.05C14.8833 20.258 15.3 20.5273 15.684 20.858C15.92 21.034 16.156 21.1913 16.392 21.33C16.628 21.4687 16.8807 21.538 17.15 21.538C17.658 21.538 18.0933 21.3553 18.456 20.99C18.8187 20.6247 19 20.1867 19 19.676C19 19.456 18.956 19.2387 18.868 19.024C18.7787 18.808 18.65 18.6153 18.482 18.446L15.892 15.846C15.6027 15.5567 15.3813 15.232 15.228 14.872C15.076 14.512 15 14.134 15 13.738V10.538C15 10.2553 15.096 10.018 15.288 9.82599C15.48 9.63399 15.718 9.53799 16.002 9.53799C16.286 9.53799 16.5233 9.63399 16.714 9.82599C16.9047 10.018 17 10.2553 17 10.538V14.112L19.908 16.98C20.272 17.3507 20.5453 17.7687 20.728 18.234C20.9107 18.6993 21.0013 19.1833 21 19.686C21 20.746 20.632 21.6527 19.896 22.406C19.1613 23.1593 18.242 23.536 17.138 23.536C16.582 23.536 16.078 23.4287 15.626 23.214C15.174 22.9993 14.754 22.7173 14.366 22.368C14.1553 22.216 13.942 22.0727 13.726 21.938C13.51 21.8033 13.268 21.7367 13 21.738C12.7413 21.738 12.2733 21.948 11.596 22.368C11.2067 22.6907 10.778 22.964 10.31 23.188C9.842 23.412 9.35934 23.528 8.862 23.536" fill="#6C7E7F"/>
</svg>
