<svg width="48" height="48" viewBox="0 0 48 48" fill="none" xmlns="http://www.w3.org/2000/svg">
<g clip-path="url(#clip0_1_2)">
<path d="M35 48V37C35 35.4087 34.3679 33.8826 33.2426 32.7574C32.1174 31.6321 30.5913 31 29 31C27 31 0.2 34 0.2 34M30 43H0M48 43H40M19 27L24.836 22.83C25.3514 22.4617 25.7255 21.9284 25.8964 21.3185C26.0674 20.7085 26.0249 20.0585 25.776 19.476L23.806 14.882C23.068 14.452 20.26 13 16 13C11.74 13 8.932 14.452 8.194 14.88L6.224 19.476C5.97461 20.0587 5.93185 20.7092 6.10281 21.3196C6.27378 21.93 6.64819 22.4636 7.164 22.832L13 27M39 34.8C39 34.8 41 38 43.5 38C44.4283 38 45.3185 37.6312 45.9749 36.9749C46.6312 36.3185 47 35.4283 47 34.5C47 32.568 45.432 31.008 43.5 31.008C41 31.008 39 34.2 39 34.2V34.8ZM15.7 9C15.7 9 12.5 7 12.5 4.5C12.5 3.5728 12.8683 2.68358 13.524 2.02795C14.1796 1.37233 15.0688 1.004 15.996 1.004C16.9232 1.004 17.8124 1.37233 18.468 2.02795C19.1237 2.68358 19.492 3.5728 19.492 4.5C19.492 7 16.3 9 16.3 9H15.7Z" stroke="#6C7E7F" stroke-width="2"/>
</g>
<defs>
<clipPath id="clip0_1_2">
<rect width="48" height="48" fill="white"/>
</clipPath>
</defs>
</svg>
