<svg width="48" height="48" viewBox="0 0 48 48" fill="none" xmlns="http://www.w3.org/2000/svg">
<path d="M18 7.5C8.9025 7.5 1.5 14.9025 1.5 24C1.5 33.0975 8.9025 40.5 18 40.5H46.5V37.5H27.4575C31.7085 34.512 34.5 29.58 34.5 24C34.5 14.9025 27.0975 7.5 18 7.5ZM18 10.5C25.443 10.5 31.5 16.5555 31.5 24C31.5 31.4445 25.443 37.5 18 37.5C10.557 37.5 4.5 31.4445 4.5 24C4.5 16.5555 10.557 10.5 18 10.5ZM18 18C14.691 18 12 20.691 12 24C12 27.309 14.691 30 18 30C21.309 30 24 27.309 24 24C24 20.691 21.309 18 18 18ZM18 21C19.6545 21 21 22.3455 21 24C21 25.6545 19.6545 27 18 27C16.3455 27 15 25.6545 15 24C15 22.3455 16.3455 21 18 21Z" fill="#6C7E7F"/>
</svg>
