<svg width="48" height="48" viewBox="0 0 48 48" fill="none" xmlns="http://www.w3.org/2000/svg">
<path d="M45.7688 22.9931C45.6019 22.6999 45.3784 22.4427 45.1113 22.2367C44.8441 22.0307 44.5385 21.8799 44.2125 21.7931C42.7336 21.4149 41.2016 21.2881 39.6806 21.4181C40.5563 17.55 39.9844 14.4975 39.4087 12.7181C39.2079 12.0895 38.7801 11.5583 38.2088 11.2279C37.6376 10.8976 36.9638 10.7918 36.3187 10.9313C34.3167 11.3802 32.4213 12.2152 30.7388 13.3894C29.5678 10.842 27.7973 8.61605 25.5788 6.90188C25.1235 6.55887 24.569 6.37335 23.9991 6.37335C23.4291 6.37335 22.8746 6.55887 22.4194 6.90188C20.202 8.6168 18.4323 10.8426 17.2613 13.3894C15.5781 12.215 13.6821 11.38 11.6794 10.9313C11.0344 10.792 10.3606 10.8981 9.78962 11.2288C9.21862 11.5596 8.79137 12.0912 8.59125 12.72C8.01563 14.4994 7.44375 17.5519 8.31938 21.42C6.79841 21.29 5.26641 21.4168 3.7875 21.795C3.46145 21.8818 3.15594 22.0325 2.88875 22.2386C2.62157 22.4446 2.39806 22.7017 2.23125 22.995C2.05595 23.2964 1.94245 23.6297 1.89738 23.9755C1.85231 24.3212 1.87657 24.6725 1.96875 25.0088C2.58938 27.3113 4.5 31.6875 10.2975 35.1581C16.095 38.6287 21.2419 38.625 24 38.625C26.7581 38.625 31.8975 38.625 37.6987 35.1581C43.5 31.6912 45.4069 27.3112 46.0275 25.0069C46.1202 24.6708 46.1451 24.3197 46.1007 23.974C46.0563 23.6282 45.9434 23.2948 45.7688 22.9931ZM31.59 15.5438C33.1337 14.3797 34.9063 13.5554 36.7913 13.125C36.8914 13.1046 36.9955 13.122 37.0835 13.174C37.1715 13.2259 37.2371 13.3087 37.2675 13.4063C38.0062 15.6975 38.7319 20.4375 35.2819 26.4375C33.8968 28.804 32.1218 30.9194 30.0319 32.6944C31.4719 30.1875 32.625 26.7994 32.625 22.3444C32.6426 20.037 32.2932 17.7414 31.59 15.5438ZM10.7325 13.4119C10.7618 13.3133 10.8269 13.2292 10.915 13.1761C11.0031 13.1231 11.1079 13.1048 11.2088 13.125C13.0937 13.5554 14.8663 14.3797 16.41 15.5438C15.7068 17.7414 15.3574 20.037 15.375 22.3444C15.375 26.7994 16.5281 30.1912 17.9644 32.6887C15.8739 30.9143 14.0988 28.7988 12.7144 26.4319C9.26813 20.4375 9.99375 15.6975 10.7325 13.4119ZM11.4525 33.225C6.33375 30.1669 4.67438 26.3962 4.14 24.4125C4.12599 24.3621 4.12225 24.3094 4.12902 24.2576C4.13578 24.2057 4.15291 24.1557 4.17938 24.1106C4.21993 24.0381 4.28721 23.9843 4.36688 23.9606C5.88225 23.5843 7.45777 23.5161 9 23.76C9.4755 25.0774 10.0672 26.3499 10.7681 27.5625C12.6918 30.8822 15.315 33.7434 18.4556 35.9475C15.9797 35.4576 13.6092 34.5361 11.4525 33.225ZM24 36.1613C22.3725 34.9988 17.625 30.8737 17.625 22.3444C17.625 14.2144 21.9263 10.0931 23.775 8.69813C23.8399 8.64944 23.9189 8.62313 24 8.62313C24.0811 8.62313 24.1601 8.64944 24.225 8.69813C26.0738 10.0931 30.375 14.2144 30.375 22.3444C30.375 30.9262 25.6519 35.0006 24 36.1613ZM43.8562 24.42C43.3219 26.3963 41.6625 30.1669 36.5437 33.2325C34.3847 34.5409 32.0123 35.4593 29.535 35.9456C32.6756 33.7416 35.2988 30.8803 37.2225 27.5606C37.9265 26.349 38.5214 25.0771 39 23.76C40.544 23.518 42.1208 23.5888 43.6369 23.9681C43.7165 23.9918 43.7838 24.0456 43.8244 24.1181C43.8502 24.1635 43.8667 24.2136 43.8728 24.2654C43.8789 24.3173 43.8746 24.3699 43.86 24.42H43.8562Z" fill="#6C7E7F"/>
</svg>
