<svg xmlns="http://www.w3.org/2000/svg" xmlns:xlink="http://www.w3.org/1999/xlink" width="500" zoomAndPan="magnify" viewBox="0 0 375 149.999998" height="200" preserveAspectRatio="xMidYMid meet" version="1.0"><defs><g/><clipPath id="038c0c6236"><path d="M 44.148438 51.722656 L 53.898438 51.722656 L 53.898438 104.222656 L 44.148438 104.222656 Z M 44.148438 51.722656 " clip-rule="nonzero"/></clipPath></defs><g clip-path="url(#038c0c6236)"><path fill="#445251" d="M 53.132812 75.976562 C 52.894531 76.699219 52.296875 77.292969 51.800781 77.292969 C 50.167969 77.292969 48.539062 77.292969 46.90625 77.292969 C 46.40625 77.292969 46.199219 76.707031 46.429688 75.976562 C 46.667969 75.257812 47.257812 74.664062 47.753906 74.664062 C 49.382812 74.664062 51.011719 74.664062 52.644531 74.664062 C 53.144531 74.664062 53.363281 75.25 53.132812 75.976562 Z M 53.101562 70.84375 C 51.910156 70.84375 50.710938 70.84375 49.519531 70.84375 C 49.023438 70.84375 48.460938 71.429688 48.261719 72.15625 C 48.054688 72.878906 48.28125 73.472656 48.785156 73.472656 C 49.976562 73.472656 51.175781 73.472656 52.367188 73.472656 C 52.863281 73.472656 53.449219 72.886719 53.65625 72.15625 C 53.855469 71.429688 53.605469 70.84375 53.101562 70.84375 Z M 53.347656 67.019531 C 52.527344 67.019531 51.714844 67.019531 50.898438 67.019531 C 50.394531 67.019531 49.90625 67.605469 49.757812 68.335938 C 49.613281 69.058594 49.878906 69.648438 50.375 69.648438 C 51.195312 69.648438 52.003906 69.648438 52.824219 69.648438 C 53.320312 69.648438 53.867188 69.0625 54.007812 68.335938 C 54.15625 67.613281 53.84375 67.019531 53.347656 67.019531 Z M 51.855469 63.207031 C 51.359375 63.207031 50.949219 63.792969 50.898438 64.519531 C 50.84375 65.242188 51.175781 65.835938 51.675781 65.835938 C 52.082031 65.835938 52.496094 65.835938 52.902344 65.835938 C 53.398438 65.835938 53.878906 65.25 53.933594 64.519531 C 53.984375 63.796875 53.585938 63.207031 53.089844 63.207031 C 52.675781 63.207031 52.269531 63.207031 51.855469 63.207031 Z M 51.46875 60.691406 C 51.542969 61.421875 51.960938 62.007812 52.464844 62.007812 C 52.960938 62.007812 53.351562 61.421875 53.28125 60.691406 C 53.210938 59.972656 52.703125 59.378906 52.207031 59.378906 C 51.703125 59.382812 51.398438 59.972656 51.46875 60.691406 Z M 50.703125 56.878906 C 50.929688 57.597656 51.464844 58.191406 51.960938 58.191406 C 52.457031 58.191406 52.734375 57.605469 52.507812 56.878906 C 52.28125 56.15625 51.644531 55.5625 51.140625 55.5625 C 50.652344 55.5625 50.484375 56.148438 50.703125 56.878906 Z M 50.632812 54.363281 C 51.128906 54.363281 51.265625 53.777344 50.859375 53.050781 C 50.453125 52.328125 49.652344 51.742188 49.152344 51.742188 C 48.648438 51.742188 48.640625 52.328125 49.046875 53.054688 C 49.460938 53.777344 50.136719 54.363281 50.632812 54.363281 Z M 51.40625 78.484375 C 49.777344 78.484375 48.144531 78.484375 46.515625 78.484375 C 46.019531 78.484375 45.417969 79.070312 45.179688 79.800781 C 44.941406 80.519531 45.167969 81.113281 45.664062 81.113281 C 47.292969 81.113281 48.925781 81.113281 50.554688 81.113281 C 51.050781 81.113281 51.644531 80.527344 51.875 79.800781 C 52.113281 79.070312 51.902344 78.484375 51.40625 78.484375 Z M 49.53125 82.304688 C 48.339844 82.304688 47.140625 82.304688 45.949219 82.304688 C 45.453125 82.304688 44.867188 82.894531 44.660156 83.621094 C 44.453125 84.34375 44.703125 84.929688 45.207031 84.929688 C 46.398438 84.929688 47.597656 84.929688 48.789062 84.929688 C 49.285156 84.929688 49.847656 84.34375 50.046875 83.613281 C 50.253906 82.894531 50.027344 82.304688 49.53125 82.304688 Z M 44.960938 88.75 C 45.78125 88.75 46.59375 88.75 47.410156 88.75 C 47.914062 88.75 48.402344 88.164062 48.550781 87.4375 C 48.691406 86.714844 48.429688 86.121094 47.933594 86.121094 C 47.113281 86.121094 46.300781 86.121094 45.484375 86.121094 C 44.988281 86.121094 44.441406 86.707031 44.296875 87.4375 C 44.148438 88.164062 44.464844 88.75 44.960938 88.75 Z M 46.449219 92.570312 C 46.953125 92.570312 47.359375 91.984375 47.410156 91.257812 C 47.460938 90.527344 47.132812 89.941406 46.632812 89.941406 C 46.226562 89.941406 45.8125 89.941406 45.40625 89.941406 C 44.910156 89.941406 44.425781 90.527344 44.375 91.257812 C 44.324219 91.984375 44.722656 92.570312 45.226562 92.570312 C 45.632812 92.570312 46.039062 92.570312 46.449219 92.570312 Z M 46.835938 95.078125 C 46.765625 94.351562 46.347656 93.765625 45.84375 93.765625 C 45.347656 93.765625 44.957031 94.351562 45.027344 95.078125 C 45.097656 95.800781 45.605469 96.394531 46.101562 96.394531 C 46.605469 96.394531 46.90625 95.808594 46.835938 95.078125 Z M 47.605469 98.898438 C 47.378906 98.171875 46.84375 97.585938 46.347656 97.585938 C 45.851562 97.585938 45.574219 98.171875 45.800781 98.898438 C 46.023438 99.621094 46.664062 100.214844 47.164062 100.214844 C 47.65625 100.214844 47.824219 99.621094 47.605469 98.898438 Z M 47.675781 101.40625 C 47.179688 101.40625 47.042969 101.992188 47.449219 102.722656 C 47.855469 103.449219 48.65625 104.035156 49.15625 104.035156 C 49.660156 104.035156 49.667969 103.449219 49.261719 102.722656 C 48.847656 101.992188 48.171875 101.40625 47.675781 101.40625 Z M 47.675781 101.40625 " fill-opacity="1" fill-rule="nonzero"/></g><path stroke-linecap="butt" transform="matrix(0.749973, -0.00631747, 0.00631747, 0.749973, 62.252769, 97.018268)" fill="none" stroke-linejoin="miter" d="M -0.00171317 1.001705 L 118.716049 1.001699 " stroke="#445251" stroke-width="2" stroke-opacity="1" stroke-miterlimit="4"/><g fill="#445251" fill-opacity="1"><g transform="translate(60.768626, 81.077505)"><g><path d="M 10.953125 -12.375 L 18.59375 -19.890625 C 19.921875 -21.171875 21.046875 -22.140625 22.140625 -22.390625 L 22.140625 -22.578125 C 20.890625 -22.453125 19.953125 -22.390625 18.78125 -22.390625 C 17.625 -22.390625 16.21875 -22.484375 15.375 -22.578125 L 15.375 -22.390625 C 17.28125 -22.078125 17.71875 -21.109375 16.34375 -19.703125 L 7.921875 -11.234375 C 17.25 -1.71875 15.28125 0 24.734375 0 L 24.734375 -0.1875 C 19.953125 -0.59375 19.609375 -3.25 10.953125 -12.375 Z M 7.546875 -2.8125 C 7.359375 -5.828125 7.359375 -7.890625 7.359375 -11.265625 C 7.359375 -14.65625 7.359375 -16.71875 7.546875 -19.734375 C 7.640625 -21.390625 8.453125 -22.078125 10.171875 -22.359375 L 10.171875 -22.546875 C 8.578125 -22.421875 7.171875 -22.359375 5.921875 -22.359375 C 4.640625 -22.359375 3.25 -22.421875 1.65625 -22.546875 L 1.65625 -22.359375 C 3.34375 -22.078125 4.203125 -21.390625 4.296875 -19.703125 C 4.453125 -16.875 4.484375 -14.46875 4.484375 -11.265625 C 4.484375 -8.078125 4.453125 -5.671875 4.296875 -2.84375 C 4.203125 -1.15625 3.34375 -0.46875 1.65625 -0.1875 L 1.65625 0 C 3.25 -0.125 4.640625 -0.1875 5.921875 -0.1875 C 7.171875 -0.1875 8.578125 -0.125 10.171875 0 L 10.171875 -0.1875 C 8.453125 -0.46875 7.640625 -1.125 7.546875 -2.8125 Z M 7.546875 -2.8125 "/></g></g></g><g fill="#445251" fill-opacity="1"><g transform="translate(93.448052, 81.077505)"><g><path d="M 13.625 0.25 C 20.328125 0.25 25.328125 -4.609375 25.328125 -11.265625 C 25.328125 -17.84375 20.203125 -22.796875 13.4375 -22.796875 C 6.765625 -22.796875 1.71875 -17.9375 1.71875 -11.265625 C 1.71875 -4.703125 6.828125 0.25 13.625 0.25 Z M 13.875 -0.90625 C 8.296875 -0.90625 4.859375 -6.296875 4.859375 -11.9375 C 4.859375 -17.4375 8.265625 -21.640625 13.1875 -21.640625 C 18.75 -21.640625 22.171875 -16.25 22.171875 -10.609375 C 22.171875 -5.109375 18.75 -0.90625 13.875 -0.90625 Z M 13.875 -0.90625 "/></g></g></g><g fill="#445251" fill-opacity="1"><g transform="translate(128.662837, 81.077505)"><g><path d="M 21.671875 -22.390625 C 20.640625 -22.390625 19.640625 -22.453125 18.125 -22.578125 L 18.125 -22.390625 C 19.671875 -22.109375 20.515625 -21.546875 20.640625 -19.765625 C 20.796875 -17.1875 20.859375 -15.28125 20.859375 -11.234375 L 20.859375 -5.921875 C 15.40625 -11.328125 9.890625 -16.9375 4.359375 -22.796875 L 4.296875 -22.796875 C 4.390625 -19.53125 4.390625 -15.09375 4.390625 -11.84375 C 4.390625 -7.640625 4.296875 -5.578125 4.140625 -2.8125 C 4.046875 -1 3.21875 -0.4375 1.65625 -0.15625 L 1.65625 0.03125 C 3.1875 -0.09375 4.078125 -0.15625 5.140625 -0.15625 C 6.203125 -0.15625 7.171875 -0.09375 8.703125 0.03125 L 8.703125 -0.15625 C 7.171875 -0.4375 6.328125 -1 6.234375 -2.8125 C 6.078125 -5.609375 6.015625 -7.640625 6.015625 -11.84375 L 6.015625 -16.65625 C 11.8125 -11.015625 17.3125 -5.390625 22.453125 0.25 L 22.515625 0.25 C 22.421875 -3.375 22.421875 -7.734375 22.421875 -11.109375 C 22.421875 -15.1875 22.515625 -17.15625 22.671875 -19.796875 C 22.765625 -21.546875 23.609375 -22.109375 25.171875 -22.390625 L 25.171875 -22.578125 C 23.671875 -22.453125 22.734375 -22.390625 21.671875 -22.390625 Z M 21.671875 -22.390625 "/></g></g></g><g fill="#445251" fill-opacity="1"><g transform="translate(163.689824, 81.077505)"><g><path d="M 13.625 0.25 C 20.328125 0.25 25.328125 -4.609375 25.328125 -11.265625 C 25.328125 -17.84375 20.203125 -22.796875 13.4375 -22.796875 C 6.765625 -22.796875 1.71875 -17.9375 1.71875 -11.265625 C 1.71875 -4.703125 6.828125 0.25 13.625 0.25 Z M 13.875 -0.90625 C 8.296875 -0.90625 4.859375 -6.296875 4.859375 -11.9375 C 4.859375 -17.4375 8.265625 -21.640625 13.1875 -21.640625 C 18.75 -21.640625 22.171875 -16.25 22.171875 -10.609375 C 22.171875 -5.109375 18.75 -0.90625 13.875 -0.90625 Z M 13.875 -0.90625 "/></g></g></g><g fill="#445251" fill-opacity="1"><g transform="translate(198.904608, 81.077505)"><g><path d="M 8.703125 -10.203125 L 8.703125 -10.015625 C 13.53125 -10.203125 17 -12.8125 17 -16.90625 C 17 -20.453125 14.375 -22.546875 9.671875 -22.546875 C 8.234375 -22.546875 7.140625 -22.390625 5.578125 -22.390625 C 4.609375 -22.390625 3.15625 -22.453125 1.6875 -22.578125 L 1.6875 -22.390625 C 3.375 -22.109375 4.234375 -21.546875 4.328125 -19.703125 C 4.484375 -16.875 4.484375 -14.3125 4.484375 -11.171875 C 4.484375 -7.984375 4.453125 -5.515625 4.296875 -2.6875 C 4.203125 -1 3.34375 -0.34375 1.65625 -0.0625 L 1.65625 0.125 C 3.25 0 4.640625 -0.0625 5.921875 -0.0625 C 7.171875 -0.0625 8.578125 0 10.171875 0.125 L 10.171875 -0.0625 C 8.453125 -0.375 7.640625 -1 7.546875 -2.6875 C 7.359375 -5.671875 7.359375 -7.796875 7.359375 -11.171875 C 7.359375 -14.375 7.359375 -16.65625 7.546875 -21.265625 C 8.171875 -21.359375 8.796875 -21.421875 9.234375 -21.421875 C 12.375 -21.421875 14 -19.0625 14 -16.25 C 14 -14.25 13.15625 -10.453125 8.703125 -10.203125 Z M 8.703125 -10.203125 "/></g></g></g><g fill="#445251" fill-opacity="1"><g transform="translate(225.574273, 81.077505)"><g><path d="M 20.390625 -2.84375 C 16.40625 -11.453125 14.5625 -15.4375 11.328125 -22.796875 L 11.265625 -22.796875 C 9.609375 -18.46875 5.296875 -8.171875 2.96875 -2.90625 C 2.15625 -1.03125 1.1875 -0.3125 0.1875 -0.15625 L 0.1875 0.03125 C 1.0625 -0.0625 2.1875 -0.15625 3.40625 -0.15625 C 4.359375 -0.15625 5.703125 -0.0625 6.796875 0.03125 L 6.796875 -0.15625 C 4.765625 -0.34375 4.203125 -1.0625 4.890625 -2.875 C 5.390625 -4.265625 5.921875 -5.671875 6.453125 -7.078125 C 7.671875 -7.140625 9.296875 -7.171875 10.828125 -7.171875 C 12.375 -7.171875 13.875 -7.140625 15.125 -7.078125 C 15.84375 -5.421875 16.46875 -3.953125 16.875 -2.875 C 17.5625 -1.0625 16.65625 -0.34375 14.6875 -0.15625 L 14.6875 0.03125 C 16.21875 -0.125 18.0625 -0.15625 19.25 -0.15625 C 20.546875 -0.15625 22.265625 -0.09375 23.328125 0.03125 L 23.328125 -0.15625 C 21.859375 -0.40625 21.203125 -1.09375 20.390625 -2.84375 Z M 10.796875 -8.359375 C 9.640625 -8.359375 8.109375 -8.421875 7.015625 -8.515625 C 8.203125 -11.546875 9.390625 -14.59375 10.515625 -17.34375 C 11.578125 -15.03125 13.15625 -11.578125 14.53125 -8.484375 C 13.34375 -8.421875 12.03125 -8.359375 10.796875 -8.359375 Z M 10.796875 -8.359375 "/></g></g></g><g fill="#445251" fill-opacity="1"><g transform="translate(257.283355, 81.077505)"><g><path d="M 13.96875 0.25 C 16.875 0.25 19.734375 -0.46875 21.390625 -1.15625 C 21.203125 -2.46875 21.171875 -4.078125 21.390625 -5.890625 L 21.203125 -5.890625 C 20.453125 -1.9375 17.375 -0.96875 14.40625 -0.96875 C 7.671875 -0.96875 4.921875 -6.359375 4.921875 -11.84375 C 4.921875 -17.34375 8.078125 -21.578125 14.09375 -21.578125 C 17.15625 -21.578125 19.671875 -20.546875 20.640625 -17 L 20.828125 -17 C 20.671875 -18.46875 20.640625 -19.921875 20.828125 -21.421875 C 19.0625 -22.203125 16.75 -22.796875 14.0625 -22.796875 C 6.734375 -22.796875 1.71875 -18.125 1.71875 -11.265625 C 1.71875 -4.484375 6.421875 0.25 13.96875 0.25 Z M 13.96875 0.25 "/></g></g></g><g fill="#445251" fill-opacity="1"><g transform="translate(289.148969, 81.077505)"><g><path d="M 13.96875 0.25 C 16.875 0.25 19.734375 -0.46875 21.390625 -1.15625 C 21.203125 -2.46875 21.171875 -4.078125 21.390625 -5.890625 L 21.203125 -5.890625 C 20.453125 -1.9375 17.375 -0.96875 14.40625 -0.96875 C 7.671875 -0.96875 4.921875 -6.359375 4.921875 -11.84375 C 4.921875 -17.34375 8.078125 -21.578125 14.09375 -21.578125 C 17.15625 -21.578125 19.671875 -20.546875 20.640625 -17 L 20.828125 -17 C 20.671875 -18.46875 20.640625 -19.921875 20.828125 -21.421875 C 19.0625 -22.203125 16.75 -22.796875 14.0625 -22.796875 C 6.734375 -22.796875 1.71875 -18.125 1.71875 -11.265625 C 1.71875 -4.484375 6.421875 0.25 13.96875 0.25 Z M 13.96875 0.25 "/></g></g></g><g fill="#445251" fill-opacity="1"><g transform="translate(321.014583, 81.077505)"><g><path d="M 18.90625 -22.390625 C 17.75 -22.390625 16.59375 -22.453125 15.25 -22.578125 L 15.25 -22.390625 C 17.21875 -22.109375 18.0625 -21.546875 16.9375 -19.671875 C 15.6875 -17.53125 14 -14.75 12.1875 -11.78125 L 7.359375 -19.671875 C 6.328125 -21.390625 7.046875 -22.078125 9.265625 -22.390625 L 9.265625 -22.578125 C 7.484375 -22.453125 6.109375 -22.390625 4.890625 -22.390625 C 3.59375 -22.390625 2.0625 -22.453125 0.8125 -22.578125 L 0.8125 -22.390625 C 2.1875 -22.140625 2.875 -21.453125 4.046875 -19.671875 C 5.734375 -17.0625 7.890625 -13.5 10.046875 -9.921875 C 10.046875 -7.421875 9.984375 -5.171875 9.859375 -2.65625 C 9.765625 -0.96875 8.921875 -0.3125 7.234375 -0.0625 L 7.234375 0.125 C 8.796875 0 10.078125 -0.03125 11.484375 -0.03125 C 12.875 -0.03125 14.15625 0 15.71875 0.125 L 15.71875 -0.0625 C 14 -0.34375 13.1875 -0.96875 13.09375 -2.6875 C 12.9375 -5.390625 12.9375 -7.765625 12.9375 -10.578125 C 15.0625 -14.09375 17.125 -17.28125 18.6875 -19.671875 C 19.859375 -21.421875 20.484375 -21.953125 22.078125 -22.390625 L 22.078125 -22.578125 C 21.109375 -22.453125 20.171875 -22.390625 18.90625 -22.390625 Z M 18.90625 -22.390625 "/></g></g></g><g fill="#445251" fill-opacity="1"><g transform="translate(159.019344, 100.768283)"><g><path d="M 1.09375 -7.859375 L 6.1875 -7.859375 L 6.1875 -7.296875 L 1.640625 -7.296875 L 1.640625 -4.203125 L 5.203125 -4.203125 L 5.203125 -3.640625 L 1.640625 -3.640625 L 1.640625 0 L 1.09375 0 Z M 1.09375 -7.859375 "/></g></g></g><g fill="#445251" fill-opacity="1"><g transform="translate(174.865459, 100.768283)"><g><path d="M 1.25 -7.859375 L 1.796875 -7.859375 L 1.796875 0 L 1.25 0 Z M 1.25 -7.859375 "/></g></g></g><g fill="#445251" fill-opacity="1"><g transform="translate(186.579491, 100.768283)"><g><path d="M 5.09375 -7.296875 L 1 -7.296875 L 1 -7.859375 L 6 -7.859375 L 2.203125 -0.546875 L 6.28125 -0.546875 L 6.28125 0 L 1.28125 0 Z M 5.09375 -7.296875 "/></g></g></g><g fill="#445251" fill-opacity="1"><g transform="translate(202.473935, 100.768283)"><g><path d="M 5.015625 -0.90625 C 4.753906 -0.582031 4.441406 -0.335938 4.078125 -0.171875 C 3.703125 -0.00390625 3.300781 0.078125 2.875 0.078125 C 2.34375 0.078125 1.851562 -0.0703125 1.40625 -0.375 C 0.945312 -0.675781 0.59375 -1.09375 0.34375 -1.625 L 0.828125 -1.859375 C 1.046875 -1.421875 1.332031 -1.078125 1.6875 -0.828125 C 2.039062 -0.585938 2.4375 -0.46875 2.875 -0.46875 C 3.351562 -0.46875 3.773438 -0.597656 4.140625 -0.859375 C 4.515625 -1.109375 4.804688 -1.476562 5.015625 -1.96875 C 5.222656 -2.457031 5.328125 -3.039062 5.328125 -3.71875 L 5.328125 -7.859375 L 5.875 -7.859375 L 5.875 -3.71875 C 5.875 -2.539062 5.585938 -1.601562 5.015625 -0.90625 Z M 5.015625 -0.90625 "/></g></g></g><g fill="#445251" fill-opacity="1"><g transform="translate(218.066323, 100.768283)"><g><path d="M 8.03125 -1.921875 C 7.664062 -1.296875 7.179688 -0.804688 6.578125 -0.453125 C 5.960938 -0.0976562 5.296875 0.078125 4.578125 0.078125 C 3.867188 0.078125 3.207031 -0.0976562 2.59375 -0.453125 C 1.976562 -0.804688 1.492188 -1.296875 1.140625 -1.921875 C 0.785156 -2.535156 0.609375 -3.207031 0.609375 -3.9375 C 0.609375 -4.65625 0.785156 -5.328125 1.140625 -5.953125 C 1.492188 -6.566406 1.976562 -7.050781 2.59375 -7.40625 C 3.195312 -7.769531 3.859375 -7.953125 4.578125 -7.953125 C 5.285156 -7.953125 5.953125 -7.769531 6.578125 -7.40625 C 7.191406 -7.050781 7.675781 -6.566406 8.03125 -5.953125 C 8.382812 -5.328125 8.5625 -4.65625 8.5625 -3.9375 C 8.5625 -3.21875 8.382812 -2.546875 8.03125 -1.921875 Z M 7.546875 -5.671875 C 7.234375 -6.203125 6.816406 -6.625 6.296875 -6.9375 C 5.773438 -7.238281 5.203125 -7.390625 4.578125 -7.390625 C 3.960938 -7.390625 3.390625 -7.238281 2.859375 -6.9375 C 2.328125 -6.613281 1.910156 -6.1875 1.609375 -5.65625 C 1.304688 -5.125 1.15625 -4.550781 1.15625 -3.9375 C 1.15625 -3.300781 1.3125 -2.722656 1.625 -2.203125 C 1.9375 -1.660156 2.351562 -1.238281 2.875 -0.9375 C 3.394531 -0.625 3.960938 -0.46875 4.578125 -0.46875 C 5.210938 -0.46875 5.785156 -0.625 6.296875 -0.9375 C 6.828125 -1.25 7.25 -1.671875 7.5625 -2.203125 C 7.851562 -2.722656 8 -3.300781 8 -3.9375 C 8 -4.550781 7.847656 -5.128906 7.546875 -5.671875 Z M 7.546875 -5.671875 "/></g></g></g><g fill="#445251" fill-opacity="1"><g transform="translate(235.893905, 100.768283)"><g><path d="M 0.65625 -7.859375 L 7.4375 -7.859375 L 7.4375 -7.296875 L 4.328125 -7.296875 L 4.328125 0 L 3.765625 0 L 3.765625 -7.296875 L 0.65625 -7.296875 Z M 0.65625 -7.859375 "/></g></g></g><g fill="#445251" fill-opacity="1"><g transform="translate(252.658262, 100.768283)"><g><path d="M 1.09375 -7.859375 L 6.1875 -7.859375 L 6.1875 -7.296875 L 1.640625 -7.296875 L 1.640625 -4.203125 L 5.1875 -4.203125 L 5.1875 -3.65625 L 1.640625 -3.65625 L 1.640625 -0.5625 L 6.1875 -0.5625 L 6.1875 0 L 1.09375 0 Z M 1.09375 -7.859375 "/></g></g></g><g fill="#445251" fill-opacity="1"><g transform="translate(268.613122, 100.768283)"><g><path d="M 5.75 0 L 2.484375 -3.96875 L 3.453125 -3.96875 C 4.054688 -3.96875 4.535156 -4.046875 4.890625 -4.203125 C 5.179688 -4.335938 5.425781 -4.535156 5.625 -4.796875 C 5.8125 -5.054688 5.90625 -5.335938 5.90625 -5.640625 C 5.90625 -5.929688 5.820312 -6.203125 5.65625 -6.453125 C 5.488281 -6.703125 5.25 -6.910156 4.9375 -7.078125 C 4.613281 -7.234375 4.25 -7.3125 3.84375 -7.3125 L 1.640625 -7.3125 L 1.640625 0 L 1.09375 0 L 1.09375 -7.859375 L 3.84375 -7.859375 C 4.21875 -7.859375 4.566406 -7.800781 4.890625 -7.6875 C 5.210938 -7.570312 5.492188 -7.40625 5.734375 -7.1875 C 5.960938 -6.976562 6.144531 -6.738281 6.28125 -6.46875 C 6.394531 -6.207031 6.453125 -5.929688 6.453125 -5.640625 C 6.453125 -5.210938 6.328125 -4.820312 6.078125 -4.46875 C 5.816406 -4.113281 5.492188 -3.859375 5.109375 -3.703125 C 4.890625 -3.597656 4.664062 -3.53125 4.4375 -3.5 C 4.207031 -3.46875 3.9375 -3.453125 3.625 -3.453125 L 6.46875 0 Z M 5.75 0 "/></g></g></g><g fill="#445251" fill-opacity="1"><g transform="translate(284.761296, 100.768283)"><g><path d="M 6.328125 -2 L 2.140625 -2 L 1.203125 0 L 0.609375 0 L 4.3125 -7.953125 L 7.796875 0 L 7.203125 0 Z M 6.078125 -2.546875 L 4.28125 -6.609375 L 2.390625 -2.546875 Z M 6.078125 -2.546875 "/></g></g></g><g fill="#445251" fill-opacity="1"><g transform="translate(301.839782, 100.768283)"><g><path d="M 1.109375 0 L 1.09375 -7.859375 L 3.90625 -7.859375 C 4.363281 -7.859375 4.789062 -7.757812 5.1875 -7.5625 C 5.582031 -7.351562 5.894531 -7.082031 6.125 -6.75 C 6.34375 -6.40625 6.453125 -6.035156 6.453125 -5.640625 C 6.453125 -5.234375 6.34375 -4.863281 6.125 -4.53125 C 5.882812 -4.1875 5.570312 -3.914062 5.1875 -3.71875 C 4.789062 -3.507812 4.363281 -3.40625 3.90625 -3.40625 L 1.65625 -3.40625 L 1.65625 0 Z M 1.65625 -3.984375 L 3.90625 -3.984375 C 4.28125 -3.984375 4.613281 -4.054688 4.90625 -4.203125 C 5.21875 -4.347656 5.460938 -4.550781 5.640625 -4.8125 C 5.816406 -5.0625 5.90625 -5.335938 5.90625 -5.640625 C 5.90625 -5.953125 5.816406 -6.234375 5.640625 -6.484375 C 5.460938 -6.742188 5.21875 -6.945312 4.90625 -7.09375 C 4.601562 -7.226562 4.269531 -7.296875 3.90625 -7.296875 L 1.640625 -7.296875 Z M 1.65625 -3.984375 "/></g></g></g><g fill="#445251" fill-opacity="1"><g transform="translate(317.710059, 100.768283)"><g><path d="M 1.25 -7.859375 L 1.796875 -7.859375 L 1.796875 0 L 1.25 0 Z M 1.25 -7.859375 "/></g></g></g><g fill="#445251" fill-opacity="1"><g transform="translate(329.424093, 100.768283)"><g><path d="M 6.328125 -2 L 2.140625 -2 L 1.203125 0 L 0.609375 0 L 4.3125 -7.953125 L 7.796875 0 L 7.203125 0 Z M 6.078125 -2.546875 L 4.28125 -6.609375 L 2.390625 -2.546875 Z M 6.078125 -2.546875 "/></g></g></g><g fill="#445251" fill-opacity="1"><g transform="translate(346.507618, 100.768283)"><g/></g></g></svg>