<svg width="48" height="48" viewBox="0 0 48 48" fill="none" xmlns="http://www.w3.org/2000/svg">
<path fill-rule="evenodd" clip-rule="evenodd" d="M21.57 13C22.7635 13 23.9081 12.5259 24.752 11.682C25.5959 10.8381 26.07 9.69347 26.07 8.5C26.07 7.30653 25.5959 6.16193 24.752 5.31802C23.9081 4.47411 22.7635 4 21.57 4C20.3765 4 19.2319 4.47411 18.388 5.31802C17.5441 6.16193 17.07 7.30653 17.07 8.5C17.07 9.69347 17.5441 10.8381 18.388 11.682C19.2319 12.5259 20.3765 13 21.57 13ZM21.57 11C22.233 11 22.8689 10.7366 23.3378 10.2678C23.8066 9.79893 24.07 9.16304 24.07 8.5C24.07 7.83696 23.8066 7.20107 23.3378 6.73223C22.8689 6.26339 22.233 6 21.57 6C20.907 6 20.2711 6.26339 19.8022 6.73223C19.3334 7.20107 19.07 7.83696 19.07 8.5C19.07 9.16304 19.3334 9.79893 19.8022 10.2678C20.2711 10.7366 20.907 11 21.57 11ZM11.808 16.945C13.083 15.206 15.228 15 16.57 15H26.57C30.304 15 32.793 16.602 34.33 18.62C35.538 20.203 36.087 21.99 36.33 22.78L36.336 22.799C36.371 22.913 36.396 22.993 36.416 23.051C36.6116 23.6374 36.6213 24.2699 36.4437 24.8621C36.2662 25.4542 35.91 25.977 35.424 26.359C35.9006 26.616 36.2987 26.9972 36.5762 27.4622C36.8536 27.9271 37.0001 28.4585 37 29V43C37 43.2652 36.8946 43.5196 36.7071 43.7071C36.5196 43.8946 36.2652 44 36 44C35.7348 44 35.4804 43.8946 35.2929 43.7071C35.1054 43.5196 35 43.2652 35 43V29C35 28.7348 34.8946 28.4804 34.7071 28.2929C34.5196 28.1054 34.2652 28 34 28C33.7348 28 33.4804 28.1054 33.2929 28.2929C33.1054 28.4804 33 28.7348 33 29V29.667C33 29.9322 32.8946 30.1866 32.7071 30.3741C32.5196 30.5616 32.2652 30.667 32 30.667C31.7348 30.667 31.4804 30.5616 31.2929 30.3741C31.1054 30.1866 31 29.9322 31 29.667V29C31 28.043 31.448 27.19 32.147 26.64C31.4751 26.2778 30.9666 25.673 30.725 24.949C30.679 24.811 30.6347 24.674 30.592 24.538L30.605 24.572L30.581 24.503C30.317 23.674 30.072 22.929 29.559 22.256C29.2981 21.9025 28.9602 21.6128 28.571 21.409V41.151C28.5719 41.9219 28.276 42.6635 27.7448 43.2221C27.2135 43.7806 26.4876 44.1133 25.7177 44.1509C24.9477 44.1886 24.1928 43.9285 23.6095 43.4245C23.0263 42.9205 22.6594 42.2113 22.585 41.444L21.855 34H21.287L20.557 41.444C20.4826 42.2113 20.1157 42.9205 19.5325 43.4245C18.9492 43.9285 18.1943 44.1886 17.4243 44.1509C16.6544 44.1133 15.9285 43.7806 15.3972 43.2221C14.866 42.6635 14.5701 41.9219 14.571 41.151V26.6C14.331 26.292 14.1013 25.9903 13.882 25.695C12.947 24.438 12.083 23.144 11.563 21.931C11.129 20.917 10.439 18.811 11.808 16.945ZM16.57 17C15.285 17 14.073 17.237 13.42 18.127C12.737 19.057 13.002 20.214 13.4 21.144C13.824 22.132 14.57 23.272 15.486 24.503C15.7573 24.8683 16.0473 25.247 16.356 25.639L16.405 25.701L18.1 23.924C17.5374 23.1431 16.9418 22.3864 16.315 21.656C16.141 21.4558 16.0537 21.1946 16.0723 20.93C16.0908 20.6654 16.2138 20.419 16.414 20.245C16.6142 20.071 16.8754 19.9837 17.14 20.0023C17.4046 20.0208 17.651 20.1438 17.825 20.344C18.4117 21.0252 18.9711 21.7294 19.502 22.455L24.712 17H16.57ZM27.415 17.034C27.3797 17.0903 27.3388 17.1428 27.293 17.191L20.7 24.099C21.19 24.771 21.682 25.433 22.228 26.1C22.7319 26.7158 22.9705 27.5066 22.8914 28.2984C22.8123 29.0902 22.4218 29.8181 21.806 30.322C21.1902 30.8259 20.3994 31.0645 19.6076 30.9854C18.8158 30.9063 18.0879 30.5158 17.584 29.9C17.264 29.508 16.924 29.117 16.571 28.717V41.15C16.5717 41.4063 16.6708 41.6526 16.8479 41.8379C17.025 42.0233 17.2664 42.1335 17.5224 42.146C17.7784 42.1584 18.0295 42.0721 18.2237 41.9048C18.4179 41.7375 18.5404 41.502 18.566 41.247L19.474 32H23.668L24.575 41.248C24.598 41.5052 24.7195 41.7435 24.9142 41.9131C25.1089 42.0827 25.3617 42.1704 25.6196 42.1578C25.8775 42.1453 26.1205 42.0335 26.2979 41.8458C26.4752 41.6582 26.5731 41.4092 26.571 41.151V18.91L27.716 19.079C29.458 19.335 30.486 20.171 31.15 21.043C31.888 22.011 32.22 23.057 32.473 23.853L32.487 23.896C32.533 24.044 32.578 24.184 32.622 24.316C32.7085 24.5643 32.8893 24.7685 33.1253 24.8844C33.3613 25.0004 33.6334 25.0187 33.8828 24.9355C34.1322 24.8523 34.3388 24.6742 34.4579 24.4398C34.577 24.2054 34.5989 23.9335 34.519 23.683L34.429 23.394L34.426 23.386C34.186 22.609 33.721 21.117 32.741 19.83C31.674 18.43 30.005 17.245 27.416 17.033M19.296 25.568L17.822 27.112C18.269 27.615 18.715 28.123 19.132 28.632C19.2144 28.7359 19.3166 28.8224 19.4327 28.8865C19.5488 28.9505 19.6765 28.9909 19.8084 29.0051C19.9402 29.0193 20.0736 29.0072 20.2007 28.9694C20.3278 28.9316 20.4461 28.8689 20.5488 28.785C20.6514 28.701 20.7364 28.5975 20.7986 28.4804C20.8609 28.3633 20.8992 28.235 20.9115 28.103C20.9237 27.9709 20.9095 27.8377 20.8698 27.7112C20.83 27.5847 20.7655 27.4674 20.68 27.366C20.2033 26.7786 19.7421 26.1787 19.297 25.567" fill="#6C7E7F"/>
</svg>
