<svg width="48" height="48" viewBox="0 0 48 48" fill="none" xmlns="http://www.w3.org/2000/svg">
<path d="M48 9.70237C48.0036 10.977 47.7543 12.2398 47.2665 13.4174C46.7787 14.5951 46.0621 15.6642 45.1582 16.563L39.0304 22.6908C38.8062 22.9148 38.518 23.0638 38.2057 23.1172C24.8929 25.4151 2.83533 47.3323 2.61319 47.5519C2.48016 47.6871 2.3224 47.7954 2.1485 47.8711C1.95359 47.9562 1.7433 48.0005 1.53061 48.0013C1.22781 48.001 0.931887 47.911 0.680206 47.7427C0.428525 47.5743 0.232378 47.3352 0.116538 47.0554C0.000699244 46.7756 -0.0296363 46.4678 0.0293632 46.1708C0.0883627 45.8738 0.23405 45.601 0.448027 45.3867C0.805483 45.0267 22.6052 23.061 24.8802 9.79684C24.9336 9.48445 25.0826 9.19631 25.3066 8.97214L31.4344 2.84431C32.791 1.48669 34.5198 0.561912 36.4021 0.18696C38.2844 -0.187992 40.2355 0.00372618 42.0088 0.737863C43.7821 1.472 45.2979 2.71557 46.3643 4.31127C47.4307 5.90697 48 7.78311 48 9.70237ZM44.936 9.70237C44.9356 8.38976 44.546 7.10675 43.8165 6.0155C43.087 4.92426 42.0504 4.07377 40.8377 3.57152C39.6249 3.06927 38.2906 2.93781 37.0031 3.19375C35.7157 3.4497 34.5331 4.08156 33.6047 5.00947L27.8113 10.8003C26.7543 16.1085 23.0572 22.9563 16.7991 31.2008C25.0436 24.9428 31.8914 21.2431 37.1997 20.1886L42.9905 14.3953C43.6093 13.7808 44.0999 13.0495 44.4338 12.2439C44.7678 11.4383 44.9385 10.5744 44.936 9.70237Z" fill="#6C7E7F"/>
</svg>
