<svg xmlns="http://www.w3.org/2000/svg" xmlns:xlink="http://www.w3.org/1999/xlink" width="340" zoomAndPan="magnify" viewBox="0 0 255 141.749996" height="188" preserveAspectRatio="xMidYMid meet" version="1.0"><defs><g/><clipPath id="3269fe5ab3"><path d="M 38.246094 50.71875 L 44 50.71875 L 44 80.664062 L 38.246094 80.664062 Z M 38.246094 50.71875 " clip-rule="nonzero"/></clipPath></defs><g clip-path="url(#3269fe5ab3)"><path fill="#445251" d="M 43.339844 64.484375 C 43.203125 64.894531 42.863281 65.230469 42.582031 65.230469 C 41.65625 65.230469 40.734375 65.230469 39.808594 65.230469 C 39.523438 65.230469 39.40625 64.898438 39.539062 64.484375 C 39.671875 64.078125 40.007812 63.742188 40.289062 63.742188 C 41.210938 63.742188 42.136719 63.742188 43.058594 63.742188 C 43.34375 63.742188 43.46875 64.074219 43.339844 64.484375 Z M 43.320312 61.574219 C 42.644531 61.574219 41.964844 61.574219 41.289062 61.574219 C 41.007812 61.574219 40.6875 61.90625 40.574219 62.320312 C 40.460938 62.730469 40.585938 63.066406 40.871094 63.066406 C 41.546875 63.066406 42.226562 63.066406 42.902344 63.066406 C 43.183594 63.066406 43.515625 62.734375 43.632812 62.320312 C 43.746094 61.90625 43.605469 61.574219 43.320312 61.574219 Z M 43.457031 59.410156 C 42.996094 59.410156 42.535156 59.410156 42.070312 59.410156 C 41.785156 59.410156 41.507812 59.742188 41.421875 60.152344 C 41.34375 60.5625 41.492188 60.898438 41.773438 60.898438 C 42.238281 60.898438 42.699219 60.898438 43.164062 60.898438 C 43.445312 60.898438 43.753906 60.566406 43.835938 60.152344 C 43.917969 59.746094 43.738281 59.410156 43.457031 59.410156 Z M 42.613281 57.246094 C 42.332031 57.246094 42.097656 57.578125 42.070312 57.992188 C 42.042969 58.398438 42.226562 58.734375 42.511719 58.734375 C 42.742188 58.734375 42.976562 58.734375 43.207031 58.734375 C 43.488281 58.734375 43.761719 58.402344 43.792969 57.992188 C 43.820312 57.582031 43.59375 57.246094 43.3125 57.246094 C 43.078125 57.246094 42.847656 57.246094 42.613281 57.246094 Z M 42.394531 55.820312 C 42.4375 56.234375 42.671875 56.566406 42.957031 56.566406 C 43.238281 56.566406 43.460938 56.234375 43.421875 55.820312 C 43.382812 55.410156 43.09375 55.074219 42.8125 55.074219 C 42.527344 55.078125 42.355469 55.410156 42.394531 55.820312 Z M 41.960938 53.65625 C 42.089844 54.066406 42.390625 54.402344 42.671875 54.402344 C 42.953125 54.402344 43.113281 54.070312 42.984375 53.65625 C 42.855469 53.25 42.492188 52.914062 42.210938 52.914062 C 41.929688 52.914062 41.835938 53.246094 41.960938 53.65625 Z M 41.921875 52.234375 C 42.203125 52.234375 42.277344 51.902344 42.046875 51.488281 C 41.816406 51.078125 41.367188 50.746094 41.082031 50.746094 C 40.796875 50.746094 40.792969 51.078125 41.023438 51.492188 C 41.253906 51.902344 41.640625 52.234375 41.921875 52.234375 Z M 42.359375 65.90625 C 41.433594 65.90625 40.511719 65.90625 39.585938 65.90625 C 39.304688 65.90625 38.964844 66.238281 38.828125 66.652344 C 38.695312 67.0625 38.824219 67.398438 39.105469 67.398438 C 40.027344 67.398438 40.953125 67.398438 41.875 67.398438 C 42.15625 67.398438 42.492188 67.066406 42.625 66.652344 C 42.761719 66.238281 42.640625 65.90625 42.359375 65.90625 Z M 41.296875 68.074219 C 40.621094 68.074219 39.941406 68.074219 39.265625 68.074219 C 38.984375 68.074219 38.652344 68.40625 38.535156 68.820312 C 38.417969 69.226562 38.558594 69.5625 38.84375 69.5625 C 39.519531 69.5625 40.199219 69.5625 40.875 69.5625 C 41.15625 69.5625 41.476562 69.226562 41.589844 68.816406 C 41.703125 68.40625 41.578125 68.074219 41.296875 68.074219 Z M 38.707031 71.726562 C 39.167969 71.726562 39.628906 71.726562 40.09375 71.726562 C 40.378906 71.726562 40.65625 71.394531 40.742188 70.980469 C 40.820312 70.574219 40.671875 70.238281 40.390625 70.238281 C 39.925781 70.238281 39.464844 70.238281 39 70.238281 C 38.71875 70.238281 38.410156 70.570312 38.328125 70.980469 C 38.246094 71.394531 38.425781 71.726562 38.707031 71.726562 Z M 39.550781 73.894531 C 39.835938 73.894531 40.066406 73.5625 40.09375 73.148438 C 40.125 72.734375 39.9375 72.402344 39.652344 72.402344 C 39.421875 72.402344 39.1875 72.402344 38.957031 72.402344 C 38.675781 72.402344 38.402344 72.734375 38.375 73.148438 C 38.34375 73.5625 38.570312 73.894531 38.855469 73.894531 C 39.085938 73.894531 39.316406 73.894531 39.550781 73.894531 Z M 39.769531 75.316406 C 39.730469 74.902344 39.492188 74.570312 39.207031 74.570312 C 38.925781 74.570312 38.703125 74.902344 38.742188 75.316406 C 38.78125 75.722656 39.070312 76.058594 39.351562 76.058594 C 39.636719 76.058594 39.808594 75.726562 39.769531 75.316406 Z M 40.203125 77.480469 C 40.074219 77.066406 39.773438 76.734375 39.492188 76.734375 C 39.210938 76.734375 39.050781 77.066406 39.179688 77.480469 C 39.308594 77.890625 39.671875 78.226562 39.957031 78.226562 C 40.234375 78.226562 40.328125 77.890625 40.203125 77.480469 Z M 40.242188 78.902344 C 39.960938 78.902344 39.886719 79.234375 40.117188 79.648438 C 40.347656 80.058594 40.800781 80.394531 41.082031 80.394531 C 41.367188 80.394531 41.371094 80.058594 41.140625 79.648438 C 40.910156 79.234375 40.523438 78.902344 40.242188 78.902344 Z M 40.242188 78.902344 " fill-opacity="1" fill-rule="nonzero"/></g><path stroke-linecap="butt" transform="matrix(0.74868, 0, 0, 0.74868, 55.09998, 80.055921)" fill="none" stroke-linejoin="miter" d="M 0.00211401 0.499235 L 50.309437 0.499235 " stroke="#445251" stroke-width="1" stroke-opacity="1" stroke-miterlimit="4"/><g fill="#445251" fill-opacity="1"><g transform="translate(48.153702, 72.051133)"><g><path d="M 6.21875 -7.015625 L 10.546875 -11.28125 C 11.296875 -12.015625 11.9375 -12.5625 12.5625 -12.703125 L 12.5625 -12.8125 C 11.84375 -12.734375 11.3125 -12.703125 10.65625 -12.703125 C 10 -12.703125 9.203125 -12.75 8.71875 -12.8125 L 8.71875 -12.703125 C 9.8125 -12.53125 10.0625 -11.96875 9.28125 -11.171875 L 4.5 -6.375 C 9.78125 -0.984375 8.671875 0 14.03125 0 L 14.03125 -0.109375 C 11.3125 -0.34375 11.125 -1.84375 6.21875 -7.015625 Z M 4.28125 -1.59375 C 4.171875 -3.296875 4.171875 -4.484375 4.171875 -6.390625 C 4.171875 -8.3125 4.171875 -9.484375 4.28125 -11.1875 C 4.328125 -12.140625 4.796875 -12.53125 5.78125 -12.6875 L 5.78125 -12.796875 C 4.875 -12.71875 4.0625 -12.6875 3.359375 -12.6875 C 2.625 -12.6875 1.84375 -12.71875 0.9375 -12.796875 L 0.9375 -12.6875 C 1.90625 -12.53125 2.375 -12.140625 2.4375 -11.171875 C 2.515625 -9.578125 2.546875 -8.203125 2.546875 -6.390625 C 2.546875 -4.578125 2.515625 -3.21875 2.4375 -1.609375 C 2.375 -0.65625 1.90625 -0.265625 0.9375 -0.109375 L 0.9375 0 C 1.84375 -0.078125 2.625 -0.109375 3.359375 -0.109375 C 4.0625 -0.109375 4.875 -0.078125 5.78125 0 L 5.78125 -0.109375 C 4.796875 -0.265625 4.328125 -0.640625 4.28125 -1.59375 Z M 4.28125 -1.59375 "/></g></g></g><g fill="#445251" fill-opacity="1"><g transform="translate(66.704059, 72.051133)"><g><path d="M 7.734375 0.140625 C 11.53125 0.140625 14.375 -2.609375 14.375 -6.390625 C 14.375 -10.125 11.453125 -12.9375 7.625 -12.9375 C 3.84375 -12.9375 0.984375 -10.171875 0.984375 -6.390625 C 0.984375 -2.671875 3.875 0.140625 7.734375 0.140625 Z M 7.875 -0.515625 C 4.703125 -0.515625 2.75 -3.578125 2.75 -6.765625 C 2.75 -9.890625 4.6875 -12.28125 7.484375 -12.28125 C 10.640625 -12.28125 12.578125 -9.21875 12.578125 -6.015625 C 12.578125 -2.890625 10.640625 -0.515625 7.875 -0.515625 Z M 7.875 -0.515625 "/></g></g></g><g fill="#445251" fill-opacity="1"><g transform="translate(86.693574, 72.051133)"><g><path d="M 12.296875 -12.703125 C 11.703125 -12.703125 11.140625 -12.734375 10.28125 -12.8125 L 10.28125 -12.703125 C 11.15625 -12.546875 11.640625 -12.21875 11.703125 -11.203125 C 11.796875 -9.75 11.828125 -8.671875 11.828125 -6.375 L 11.828125 -3.359375 C 8.734375 -6.4375 5.609375 -9.609375 2.46875 -12.9375 L 2.4375 -12.9375 C 2.484375 -11.078125 2.484375 -8.5625 2.484375 -6.71875 C 2.484375 -4.328125 2.4375 -3.15625 2.34375 -1.59375 C 2.296875 -0.5625 1.828125 -0.25 0.9375 -0.09375 L 0.9375 0.015625 C 1.8125 -0.046875 2.3125 -0.09375 2.90625 -0.09375 C 3.515625 -0.09375 4.0625 -0.046875 4.9375 0.015625 L 4.9375 -0.09375 C 4.0625 -0.25 3.59375 -0.5625 3.53125 -1.59375 C 3.453125 -3.1875 3.40625 -4.328125 3.40625 -6.71875 L 3.40625 -9.453125 C 6.703125 -6.25 9.828125 -3.0625 12.734375 0.140625 L 12.765625 0.140625 C 12.71875 -1.921875 12.71875 -4.390625 12.71875 -6.3125 C 12.71875 -8.609375 12.765625 -9.734375 12.859375 -11.234375 C 12.921875 -12.21875 13.390625 -12.546875 14.28125 -12.703125 L 14.28125 -12.8125 C 13.4375 -12.734375 12.890625 -12.703125 12.296875 -12.703125 Z M 12.296875 -12.703125 "/></g></g></g><g fill="#445251" fill-opacity="1"><g transform="translate(106.576489, 72.051133)"><g><path d="M 7.734375 0.140625 C 11.53125 0.140625 14.375 -2.609375 14.375 -6.390625 C 14.375 -10.125 11.453125 -12.9375 7.625 -12.9375 C 3.84375 -12.9375 0.984375 -10.171875 0.984375 -6.390625 C 0.984375 -2.671875 3.875 0.140625 7.734375 0.140625 Z M 7.875 -0.515625 C 4.703125 -0.515625 2.75 -3.578125 2.75 -6.765625 C 2.75 -9.890625 4.6875 -12.28125 7.484375 -12.28125 C 10.640625 -12.28125 12.578125 -9.21875 12.578125 -6.015625 C 12.578125 -2.890625 10.640625 -0.515625 7.875 -0.515625 Z M 7.875 -0.515625 "/></g></g></g><g fill="#445251" fill-opacity="1"><g transform="translate(126.566005, 72.051133)"><g><path d="M 4.9375 -5.796875 L 4.9375 -5.6875 C 7.671875 -5.796875 9.640625 -7.265625 9.640625 -9.59375 C 9.640625 -11.59375 8.15625 -12.796875 5.484375 -12.796875 C 4.671875 -12.796875 4.046875 -12.703125 3.15625 -12.703125 C 2.609375 -12.703125 1.796875 -12.734375 0.953125 -12.8125 L 0.953125 -12.703125 C 1.921875 -12.546875 2.390625 -12.21875 2.453125 -11.171875 C 2.546875 -9.578125 2.546875 -8.125 2.546875 -6.34375 C 2.546875 -4.53125 2.515625 -3.125 2.4375 -1.53125 C 2.375 -0.5625 1.90625 -0.203125 0.9375 -0.03125 L 0.9375 0.078125 C 1.84375 0 2.625 -0.03125 3.359375 -0.03125 C 4.0625 -0.03125 4.875 0 5.78125 0.078125 L 5.78125 -0.03125 C 4.796875 -0.21875 4.328125 -0.5625 4.28125 -1.53125 C 4.171875 -3.21875 4.171875 -4.421875 4.171875 -6.34375 C 4.171875 -8.15625 4.171875 -9.453125 4.28125 -12.0625 C 4.640625 -12.109375 4.984375 -12.15625 5.234375 -12.15625 C 7.015625 -12.15625 7.9375 -10.8125 7.9375 -9.21875 C 7.9375 -8.078125 7.46875 -5.9375 4.9375 -5.796875 Z M 4.9375 -5.796875 "/></g></g></g><g fill="#445251" fill-opacity="1"><g transform="translate(141.705013, 72.051133)"><g><path d="M 11.5625 -1.609375 C 9.3125 -6.5 8.265625 -8.765625 6.4375 -12.9375 L 6.390625 -12.9375 C 5.453125 -10.484375 3 -4.640625 1.6875 -1.65625 C 1.21875 -0.59375 0.671875 -0.171875 0.109375 -0.09375 L 0.109375 0.015625 C 0.609375 -0.03125 1.25 -0.09375 1.9375 -0.09375 C 2.46875 -0.09375 3.234375 -0.03125 3.859375 0.015625 L 3.859375 -0.09375 C 2.703125 -0.203125 2.375 -0.609375 2.765625 -1.640625 C 3.0625 -2.421875 3.359375 -3.21875 3.65625 -4.015625 C 4.359375 -4.046875 5.28125 -4.0625 6.140625 -4.0625 C 7.015625 -4.0625 7.875 -4.046875 8.578125 -4.015625 C 8.984375 -3.078125 9.34375 -2.234375 9.578125 -1.640625 C 9.96875 -0.609375 9.453125 -0.203125 8.328125 -0.09375 L 8.328125 0.015625 C 9.203125 -0.078125 10.25 -0.09375 10.921875 -0.09375 C 11.65625 -0.09375 12.625 -0.046875 13.234375 0.015625 L 13.234375 -0.09375 C 12.40625 -0.234375 12.03125 -0.625 11.5625 -1.609375 Z M 6.125 -4.75 C 5.46875 -4.75 4.59375 -4.78125 3.984375 -4.828125 C 4.65625 -6.5625 5.328125 -8.28125 5.96875 -9.84375 C 6.578125 -8.53125 7.46875 -6.578125 8.25 -4.8125 C 7.5625 -4.78125 6.828125 -4.75 6.125 -4.75 Z M 6.125 -4.75 "/></g></g></g><g fill="#445251" fill-opacity="1"><g transform="translate(159.704579, 72.051133)"><g><path d="M 7.921875 0.140625 C 9.578125 0.140625 11.1875 -0.265625 12.140625 -0.65625 C 12.03125 -1.40625 12.015625 -2.3125 12.140625 -3.34375 L 12.03125 -3.34375 C 11.59375 -1.09375 9.859375 -0.546875 8.171875 -0.546875 C 4.359375 -0.546875 2.796875 -3.609375 2.796875 -6.71875 C 2.796875 -9.84375 4.578125 -12.234375 8 -12.234375 C 9.734375 -12.234375 11.15625 -11.65625 11.703125 -9.640625 L 11.8125 -9.640625 C 11.71875 -10.484375 11.703125 -11.296875 11.8125 -12.15625 C 10.8125 -12.59375 9.5 -12.9375 7.984375 -12.9375 C 3.8125 -12.9375 0.984375 -10.28125 0.984375 -6.390625 C 0.984375 -2.546875 3.640625 0.140625 7.921875 0.140625 Z M 7.921875 0.140625 "/></g></g></g><g fill="#445251" fill-opacity="1"><g transform="translate(177.792979, 72.051133)"><g><path d="M 7.921875 0.140625 C 9.578125 0.140625 11.1875 -0.265625 12.140625 -0.65625 C 12.03125 -1.40625 12.015625 -2.3125 12.140625 -3.34375 L 12.03125 -3.34375 C 11.59375 -1.09375 9.859375 -0.546875 8.171875 -0.546875 C 4.359375 -0.546875 2.796875 -3.609375 2.796875 -6.71875 C 2.796875 -9.84375 4.578125 -12.234375 8 -12.234375 C 9.734375 -12.234375 11.15625 -11.65625 11.703125 -9.640625 L 11.8125 -9.640625 C 11.71875 -10.484375 11.703125 -11.296875 11.8125 -12.15625 C 10.8125 -12.59375 9.5 -12.9375 7.984375 -12.9375 C 3.8125 -12.9375 0.984375 -10.28125 0.984375 -6.390625 C 0.984375 -2.546875 3.640625 0.140625 7.921875 0.140625 Z M 7.921875 0.140625 "/></g></g></g><g fill="#445251" fill-opacity="1"><g transform="translate(195.881378, 72.051133)"><g><path d="M 10.734375 -12.703125 C 10.078125 -12.703125 9.421875 -12.734375 8.65625 -12.8125 L 8.65625 -12.703125 C 9.765625 -12.546875 10.25 -12.21875 9.609375 -11.15625 C 8.90625 -9.953125 7.9375 -8.375 6.90625 -6.6875 L 4.171875 -11.15625 C 3.59375 -12.140625 4 -12.53125 5.265625 -12.703125 L 5.265625 -12.8125 C 4.25 -12.734375 3.46875 -12.703125 2.765625 -12.703125 C 2.046875 -12.703125 1.171875 -12.734375 0.46875 -12.8125 L 0.46875 -12.703125 C 1.25 -12.5625 1.640625 -12.171875 2.296875 -11.15625 C 3.25 -9.6875 4.484375 -7.65625 5.703125 -5.625 C 5.703125 -4.203125 5.671875 -2.9375 5.59375 -1.515625 C 5.546875 -0.546875 5.0625 -0.171875 4.109375 -0.03125 L 4.109375 0.078125 C 4.984375 0 5.71875 -0.015625 6.515625 -0.015625 C 7.296875 -0.015625 8.03125 0 8.921875 0.078125 L 8.921875 -0.03125 C 7.9375 -0.203125 7.484375 -0.546875 7.421875 -1.53125 C 7.34375 -3.0625 7.34375 -4.40625 7.34375 -6 C 8.546875 -8 9.71875 -9.8125 10.609375 -11.15625 C 11.265625 -12.15625 11.625 -12.453125 12.53125 -12.703125 L 12.53125 -12.8125 C 11.96875 -12.734375 11.4375 -12.703125 10.734375 -12.703125 Z M 10.734375 -12.703125 "/></g></g></g><g fill="#445251" fill-opacity="1"><g transform="translate(103.280202, 82.692206)"><g><path d="M 0.625 -4.453125 L 3.515625 -4.453125 L 3.515625 -4.140625 L 0.9375 -4.140625 L 0.9375 -2.390625 L 2.953125 -2.390625 L 2.953125 -2.0625 L 0.9375 -2.0625 L 0.9375 0 L 0.625 0 Z M 0.625 -4.453125 "/></g></g></g><g fill="#445251" fill-opacity="1"><g transform="translate(112.277148, 82.692206)"><g><path d="M 0.703125 -4.453125 L 1.015625 -4.453125 L 1.015625 0 L 0.703125 0 Z M 0.703125 -4.453125 "/></g></g></g><g fill="#445251" fill-opacity="1"><g transform="translate(118.92758, 82.692206)"><g><path d="M 2.890625 -4.140625 L 0.5625 -4.140625 L 0.5625 -4.453125 L 3.40625 -4.453125 L 1.25 -0.3125 L 3.5625 -0.3125 L 3.5625 0 L 0.734375 0 Z M 2.890625 -4.140625 "/></g></g></g><g fill="#445251" fill-opacity="1"><g transform="translate(127.951974, 82.692206)"><g><path d="M 2.84375 -0.515625 C 2.695312 -0.328125 2.519531 -0.1875 2.3125 -0.09375 C 2.101562 0 1.875 0.046875 1.625 0.046875 C 1.332031 0.046875 1.054688 -0.0390625 0.796875 -0.21875 C 0.535156 -0.382812 0.332031 -0.617188 0.1875 -0.921875 L 0.46875 -1.0625 C 0.59375 -0.800781 0.753906 -0.601562 0.953125 -0.46875 C 1.160156 -0.332031 1.382812 -0.265625 1.625 -0.265625 C 1.894531 -0.265625 2.140625 -0.335938 2.359375 -0.484375 C 2.566406 -0.628906 2.726562 -0.84375 2.84375 -1.125 C 2.96875 -1.394531 3.03125 -1.722656 3.03125 -2.109375 L 3.03125 -4.453125 L 3.328125 -4.453125 L 3.328125 -2.109375 C 3.328125 -1.441406 3.164062 -0.910156 2.84375 -0.515625 Z M 2.84375 -0.515625 "/></g></g></g><g fill="#445251" fill-opacity="1"><g transform="translate(136.804833, 82.692206)"><g><path d="M 4.546875 -1.09375 C 4.347656 -0.738281 4.078125 -0.460938 3.734375 -0.265625 C 3.378906 -0.0546875 3 0.046875 2.59375 0.046875 C 2.195312 0.046875 1.820312 -0.0546875 1.46875 -0.265625 C 1.125 -0.460938 0.847656 -0.738281 0.640625 -1.09375 C 0.441406 -1.4375 0.34375 -1.816406 0.34375 -2.234375 C 0.34375 -2.640625 0.441406 -3.019531 0.640625 -3.375 C 0.847656 -3.726562 1.125 -4.003906 1.46875 -4.203125 C 1.8125 -4.398438 2.1875 -4.5 2.59375 -4.5 C 3 -4.5 3.378906 -4.398438 3.734375 -4.203125 C 4.078125 -3.992188 4.347656 -3.71875 4.546875 -3.375 C 4.753906 -3.019531 4.859375 -2.640625 4.859375 -2.234375 C 4.859375 -1.828125 4.753906 -1.445312 4.546875 -1.09375 Z M 4.28125 -3.21875 C 4.101562 -3.519531 3.867188 -3.757812 3.578125 -3.9375 C 3.273438 -4.101562 2.945312 -4.1875 2.59375 -4.1875 C 2.25 -4.1875 1.925781 -4.101562 1.625 -3.9375 C 1.320312 -3.75 1.082031 -3.503906 0.90625 -3.203125 C 0.738281 -2.898438 0.65625 -2.578125 0.65625 -2.234375 C 0.65625 -1.867188 0.742188 -1.539062 0.921875 -1.25 C 1.097656 -0.9375 1.332031 -0.695312 1.625 -0.53125 C 1.925781 -0.351562 2.25 -0.265625 2.59375 -0.265625 C 2.957031 -0.265625 3.285156 -0.351562 3.578125 -0.53125 C 3.878906 -0.707031 4.113281 -0.945312 4.28125 -1.25 C 4.457031 -1.539062 4.546875 -1.867188 4.546875 -2.234375 C 4.546875 -2.578125 4.457031 -2.90625 4.28125 -3.21875 Z M 4.28125 -3.21875 "/></g></g></g><g fill="#445251" fill-opacity="1"><g transform="translate(146.927008, 82.692206)"><g><path d="M 0.375 -4.453125 L 4.21875 -4.453125 L 4.21875 -4.140625 L 2.453125 -4.140625 L 2.453125 0 L 2.140625 0 L 2.140625 -4.140625 L 0.375 -4.140625 Z M 0.375 -4.453125 "/></g></g></g><g fill="#445251" fill-opacity="1"><g transform="translate(156.445403, 82.692206)"><g><path d="M 0.625 -4.453125 L 3.515625 -4.453125 L 3.515625 -4.140625 L 0.9375 -4.140625 L 0.9375 -2.390625 L 2.9375 -2.390625 L 2.9375 -2.078125 L 0.9375 -2.078125 L 0.9375 -0.328125 L 3.515625 -0.328125 L 3.515625 0 L 0.625 0 Z M 0.625 -4.453125 "/></g></g></g><g fill="#445251" fill-opacity="1"><g transform="translate(165.504098, 82.692206)"><g><path d="M 3.265625 0 L 1.40625 -2.25 L 1.953125 -2.25 C 2.296875 -2.25 2.570312 -2.289062 2.78125 -2.375 C 2.9375 -2.457031 3.070312 -2.570312 3.1875 -2.71875 C 3.300781 -2.863281 3.359375 -3.023438 3.359375 -3.203125 C 3.359375 -3.367188 3.304688 -3.519531 3.203125 -3.65625 C 3.109375 -3.800781 2.972656 -3.921875 2.796875 -4.015625 C 2.617188 -4.109375 2.414062 -4.15625 2.1875 -4.15625 L 0.9375 -4.15625 L 0.9375 0 L 0.625 0 L 0.625 -4.453125 L 2.1875 -4.453125 C 2.394531 -4.453125 2.585938 -4.421875 2.765625 -4.359375 C 2.953125 -4.296875 3.113281 -4.203125 3.25 -4.078125 C 3.382812 -3.953125 3.488281 -3.816406 3.5625 -3.671875 C 3.625 -3.515625 3.65625 -3.359375 3.65625 -3.203125 C 3.65625 -2.960938 3.582031 -2.738281 3.4375 -2.53125 C 3.289062 -2.332031 3.113281 -2.1875 2.90625 -2.09375 C 2.769531 -2.039062 2.640625 -2.003906 2.515625 -1.984375 C 2.390625 -1.960938 2.238281 -1.953125 2.0625 -1.953125 L 3.671875 0 Z M 3.265625 0 "/></g></g></g><g fill="#445251" fill-opacity="1"><g transform="translate(174.672569, 82.692206)"><g><path d="M 3.59375 -1.125 L 1.21875 -1.125 L 0.6875 0 L 0.34375 0 L 2.4375 -4.515625 L 4.421875 0 L 4.09375 0 Z M 3.453125 -1.4375 L 2.421875 -3.75 L 1.359375 -1.4375 Z M 3.453125 -1.4375 "/></g></g></g><g fill="#445251" fill-opacity="1"><g transform="translate(184.369353, 82.692206)"><g><path d="M 0.625 0 L 0.625 -4.453125 L 2.21875 -4.453125 C 2.476562 -4.453125 2.71875 -4.394531 2.9375 -4.28125 C 3.164062 -4.164062 3.34375 -4.015625 3.46875 -3.828125 C 3.59375 -3.640625 3.65625 -3.429688 3.65625 -3.203125 C 3.65625 -2.972656 3.59375 -2.765625 3.46875 -2.578125 C 3.332031 -2.378906 3.15625 -2.222656 2.9375 -2.109375 C 2.71875 -1.992188 2.476562 -1.9375 2.21875 -1.9375 L 0.9375 -1.9375 L 0.9375 0 Z M 0.9375 -2.25 L 2.21875 -2.25 C 2.425781 -2.25 2.613281 -2.296875 2.78125 -2.390625 C 2.957031 -2.472656 3.097656 -2.585938 3.203125 -2.734375 C 3.304688 -2.867188 3.359375 -3.023438 3.359375 -3.203125 C 3.359375 -3.378906 3.304688 -3.535156 3.203125 -3.671875 C 3.097656 -3.816406 2.957031 -3.929688 2.78125 -4.015625 C 2.613281 -4.097656 2.425781 -4.140625 2.21875 -4.140625 L 0.9375 -4.140625 Z M 0.9375 -2.25 "/></g></g></g><g fill="#445251" fill-opacity="1"><g transform="translate(193.380021, 82.692206)"><g><path d="M 0.703125 -4.453125 L 1.015625 -4.453125 L 1.015625 0 L 0.703125 0 Z M 0.703125 -4.453125 "/></g></g></g><g fill="#445251" fill-opacity="1"><g transform="translate(200.030451, 82.692206)"><g><path d="M 3.59375 -1.125 L 1.21875 -1.125 L 0.6875 0 L 0.34375 0 L 2.4375 -4.515625 L 4.421875 0 L 4.09375 0 Z M 3.453125 -1.4375 L 2.421875 -3.75 L 1.359375 -1.4375 Z M 3.453125 -1.4375 "/></g></g></g><g fill="#445251" fill-opacity="1"><g transform="translate(209.728214, 82.692206)"><g/></g></g></svg>